<svg width="23" height="23" viewBox="0 0 23 23" fill="none" xmlns="http://www.w3.org/2000/svg">
<g clip-path="url(#clip0_0_1437)">
<path d="M0.0272538 12.0819C-0.00766782 11.8905 0.000938011 11.7279 0.000938011 11.5288V11.4761C3.13128 11.2076 6.54139 10.4191 9.07952 8.60519C9.80777 8.93886 10.524 8.89334 11.211 8.55252C12.6505 10.0064 14.0631 11.0169 15.9477 11.6078C16.1406 12.0994 16.4476 12.477 16.8687 12.7404C16.36 14.0046 15.6495 15.1196 14.7372 16.0853C13.3889 15.1141 11.6086 15.8174 11.0005 17.2179C6.78362 17.1722 2.53343 15.3273 0.0272538 12.0819ZM10.9742 18.8772C8.8215 19.989 6.54942 20.5884 4.23758 20.4575C2.44942 18.9571 1.16087 16.9957 0.50092 14.9528C3.40509 17.4489 7.26507 18.8733 10.9742 18.8772ZM15.7371 18.5612C18.1868 18.0502 20.4376 17.0652 22.2632 15.5586C19.8671 21.8057 12.6515 24.6616 6.73748 22.0115C8.65726 21.7349 10.4606 21.0719 12.0004 20.1942C13.5392 21.076 15.3705 20.1484 15.7371 18.5612ZM20.2633 12.1346C21.2062 12.065 22.1256 11.9956 23 11.8448C22.9983 12.0803 22.974 12.312 22.9737 12.5296C21.3297 14.6335 18.8587 16.0709 16.395 16.7438C17.3144 15.6277 17.9963 14.3878 18.4739 13.1354C19.2247 13.038 19.838 12.6931 20.2633 12.1346ZM20.6843 10.4489C20.5805 9.66815 20.19 9.03446 19.5791 8.63152C19.7721 6.84386 19.804 5.09958 19.658 3.41648C21.501 5.31904 22.6171 7.74746 22.9211 10.1592C22.2544 10.2996 21.5088 10.3962 20.6843 10.4489ZM7.86905 7.41994C5.54444 8.8846 2.82254 9.59608 0.132517 9.81677C0.804309 5.61846 3.6639 2.1487 7.50063 0.729947C7.60485 2.09335 7.92057 3.40964 8.42166 4.54904C7.61718 5.36596 7.42612 6.41327 7.86905 7.41994ZM12.3952 5.47088C13.6068 3.96651 14.6141 2.42923 15.1845 0.624569C16.1669 0.958222 17.0529 1.3884 17.8423 1.91518C18.118 4.08452 18.1564 6.24525 17.9475 8.26279C16.9944 8.42546 16.2451 9.00539 15.9213 9.84308C14.5142 9.33371 13.3623 8.38511 12.3425 7.36725C12.5987 6.70644 12.6083 6.08703 12.3952 5.47088ZM9.9479 3.9169C9.45829 2.70657 9.13872 1.53372 9.13213 0.25584C10.6003 -0.0819337 12.1853 -0.0706829 13.5793 0.20317C13.0467 1.69407 12.2053 3.07587 11.3162 4.20663C11.0034 4.07302 10.2415 3.7754 9.9479 3.9169Z" fill="white"/>
</g>
<defs>
<clipPath id="clip0_0_1437">
<rect width="23" height="23" fill="white"/>
</clipPath>
</defs>
</svg>
