<svg width="27" height="29" viewBox="0 0 27 29" fill="none" xmlns="http://www.w3.org/2000/svg">
<path d="M2 13.5C2 7.149 7.149 2 13.5 2C19.851 2 25 7.149 25 13.5V16H21C20.7348 16 20.4804 16.1054 20.2929 16.2929C20.1054 16.4804 20 16.7348 20 17V27C20 27.2652 20.1054 27.5196 20.2929 27.7071C20.4804 27.8946 20.7348 28 21 28H22.5C23.6935 28 24.8381 27.5259 25.682 26.682C26.5259 25.8381 27 24.6935 27 23.5V13.5C27 6.044 20.956 0 13.5 0C6.044 0 0 6.044 0 13.5V23.5C0 24.6935 0.474106 25.8381 1.31802 26.682C2.16193 27.5259 3.30653 28 4.5 28H6C6.26522 28 6.51957 27.8946 6.70711 27.7071C6.89464 27.5196 7 27.2652 7 27V17C7 16.7348 6.89464 16.4804 6.70711 16.2929C6.51957 16.1054 6.26522 16 6 16H2V13.5ZM22 18H25V23.5C25 24.163 24.7366 24.7989 24.2678 25.2678C23.7989 25.7366 23.163 26 22.5 26H22V18ZM2 18H5V26H4.5C3.83696 26 3.20107 25.7366 2.73223 25.2678C2.26339 24.7989 2 24.163 2 23.5V18ZM14.5 15C14.5 14.7348 14.3946 14.4804 14.2071 14.2929C14.0196 14.1054 13.7652 14 13.5 14C13.2348 14 12.9804 14.1054 12.7929 14.2929C12.6054 14.4804 12.5 14.7348 12.5 15V28C12.5 28.2652 12.6054 28.5196 12.7929 28.7071C12.9804 28.8946 13.2348 29 13.5 29C13.7652 29 14.0196 28.8946 14.2071 28.7071C14.3946 28.5196 14.5 28.2652 14.5 28V15ZM10 18C10.2652 18 10.5196 18.1054 10.7071 18.2929C10.8946 18.4804 11 18.7348 11 19V24C11 24.2652 10.8946 24.5196 10.7071 24.7071C10.5196 24.8946 10.2652 25 10 25C9.73478 25 9.48043 24.8946 9.29289 24.7071C9.10536 24.5196 9 24.2652 9 24V19C9 18.7348 9.10536 18.4804 9.29289 18.2929C9.48043 18.1054 9.73478 18 10 18V18ZM18 19C18 18.7348 17.8946 18.4804 17.7071 18.2929C17.5196 18.1054 17.2652 18 17 18C16.7348 18 16.4804 18.1054 16.2929 18.2929C16.1054 18.4804 16 18.7348 16 19V24C16 24.2652 16.1054 24.5196 16.2929 24.7071C16.4804 24.8946 16.7348 25 17 25C17.2652 25 17.5196 24.8946 17.7071 24.7071C17.8946 24.5196 18 24.2652 18 24V19Z" fill="#00FFC2"/>
</svg>
