<svg width="106" height="23" viewBox="0 0 106 23" fill="none" xmlns="http://www.w3.org/2000/svg">
<path d="M40.7046 6.34054V21.4705H34.6733V3.31456L37.6889 0.288574H52.767L55.7826 3.31456V22.9834L49.7514 19.9575V15.4185H43.4034V9.36652H49.7514V6.34054H40.7046Z" fill="white"/>
<path d="M64.66 15.4185H79.738V21.4705H61.6444L58.6288 18.4445V3.31456L61.6444 0.288574H79.738L75.4018 6.34054H64.66V15.4185Z" fill="white"/>
<path d="M88.6151 12.5892V21.4705H82.5839V0.288603H88.6151V9.16987L97.4659 0.288603H106L95.4454 10.8796L106 21.4705H97.4659L88.6151 12.5892Z" fill="white"/>
<path d="M24.901 0H31.8525L21.8406 20.8848H14.8892L24.901 0Z" fill="#00FFC2"/>
<path d="M10.0118 0H16.9633L6.95147 20.8848H0L10.0118 0Z" fill="#00FFC2"/>
</svg>
