<svg width="10" height="13" viewBox="0 0 10 13" fill="none" xmlns="http://www.w3.org/2000/svg">
<path fill-rule="evenodd" clip-rule="evenodd" d="M5.78239 0.393253C7.27617 -0.622518 9.29759 0.447409 9.29759 2.25384V10.3097C9.29759 12.1161 7.27617 13.1861 5.78239 12.1703L1.61787 9.33841C0.605804 8.6502 0 7.50566 0 6.28177C0 5.05787 0.605804 3.91333 1.61787 3.22512L5.78239 0.393253ZM7.79759 2.25384C7.79759 1.6517 7.12378 1.29505 6.62585 1.63364L2.46134 4.46551C1.85997 4.87444 1.5 5.55453 1.5 6.28177C1.5 7.009 1.85997 7.68909 2.46134 8.09802L6.62585 10.9299C7.12378 11.2685 7.79759 10.9118 7.79759 10.3097V2.25384Z" fill="#00FFC2"/>
</svg>
