<svg width="14" height="13" viewBox="0 0 14 13" fill="none" xmlns="http://www.w3.org/2000/svg">
<path fill-rule="evenodd" clip-rule="evenodd" d="M9.29759 2.25384C9.29759 0.447409 7.27617 -0.622518 5.78239 0.393253L1.61787 3.22512C0.605804 3.91333 0 5.05787 0 6.28177C0 7.50566 0.605804 8.6502 1.61787 9.33841L5.78239 12.1703C7.27617 13.1861 9.29759 12.1161 9.29759 10.3097V2.25384ZM6.62585 1.63364C7.12378 1.29505 7.79759 1.6517 7.79759 2.25384V10.3097C7.79759 10.9118 7.12378 11.2685 6.62585 10.9299L2.46134 8.09802C1.85997 7.68909 1.5 7.009 1.5 6.28177C1.5 5.55453 1.85997 4.87444 2.46134 4.46551L6.62585 1.63364ZM10.2283 3.31411C10.1558 3.29494 10.1166 3.29037 10.1072 3.28928C10.1044 3.28895 10.1043 3.28894 10.107 3.28894V1.78894C10.4133 1.78894 10.7969 1.89961 11.158 2.05748C11.5415 2.22516 11.977 2.47985 12.39 2.8356C13.2261 3.55596 13.976 4.70117 13.976 6.3345C13.976 7.97109 13.2228 9.0947 12.3774 9.7913C11.9612 10.1342 11.5235 10.3743 11.14 10.5302C10.7753 10.6784 10.3999 10.7746 10.107 10.7746V9.27462C10.1067 9.27462 10.1069 9.27461 10.1076 9.27456H10.1076L10.1076 9.27456C10.1137 9.2741 10.158 9.27083 10.2437 9.25009C10.3324 9.22861 10.4456 9.19322 10.5751 9.1406C10.8349 9.03499 11.1379 8.869 11.4235 8.63364C11.9816 8.17377 12.476 7.45232 12.476 6.3345C12.476 5.21341 11.9783 4.46084 11.4109 3.97203C11.1221 3.7232 10.8168 3.54544 10.557 3.43184C10.4275 3.37519 10.3152 3.3371 10.2283 3.31411ZM11.6665 6.28178C11.6665 4.72227 10.107 4.41036 10.107 4.41036V8.1532C10.107 8.1532 11.6665 7.8413 11.6665 6.28178Z" fill="#00FFC2"/>
</svg>
