<svg width="24" height="24" viewBox="0 0 24 24" fill="none" xmlns="http://www.w3.org/2000/svg">
<path d="M11 8.00005V11H8V13H11V16H13V13H16V11H13V8.00005H11ZM13 2.05005V5.08005C16.39 5.57005 19 8.47005 19 12C19 12.9 18.82 13.75 18.52 14.54L21.12 16.07C21.68 14.83 22 13.45 22 12C22 6.82005 18.05 2.55005 13 2.05005ZM12 19C8.13 19 5 15.87 5 12C5 8.47005 7.61 5.57005 11 5.08005V2.05005C5.94 2.55005 2 6.81005 2 12C2 17.52 6.47 22 11.99 22C15.3 22 18.23 20.39 20.05 17.91L17.45 16.38C16.7976 17.1991 15.9686 17.8602 15.0249 18.3139C14.0812 18.7675 13.0471 19.0021 12 19Z" fill="#E5FF44"/>
</svg>
